<?xml version="1.0" encoding="UTF-8"?>
<svg width="160px" height="160px" viewBox="0 0 160 160" version="1.1" xmlns="http://www.w3.org/2000/svg" xmlns:xlink="http://www.w3.org/1999/xlink">
    <title>favicon</title>
    <g id="Page-1" stroke="none" stroke-width="1" fill="none" fill-rule="evenodd">
        <g id="favicon">
            <rect fill="#F1F1F1" x="0" y="0" width="160" height="160"></rect>
            <g id="Group-2-Copy" transform="translate(16.312500, 23.250000)" fill="#000000" fill-opacity="0.85" fill-rule="nonzero">
                <g id="Group" transform="translate(0.687500, 0.750000)">
                    <path d="M42.3322172,0 C47.7451892,0 51.0762489,2.48949153 53.1581612,8.02169492 L53.1581612,8.02169492 L83.6928752,90.3823729 C84.386846,92.3186441 84.6644343,93.6325424 84.6644343,94.9464407 C84.6644343,99.0264407 81.4027717,102 76.8919617,102 C72.728137,102 70.4380335,100.063729 69.0500919,95.6379661 L69.0500919,95.6379661 L61.419,74.139 L61.4432598,74.1399339 L42.3040596,17.6091205 L41.8885454,17.6091205 L23.116,74.131 L23.1092267,74.1315254 L15.5449453,95.5688136 C14.0876067,100.063729 11.7975031,102 7.77247266,102 C3.12286848,102 0,99.1647458 0,94.9464407 C0,93.7708475 0.277588309,92.2494915 0.971559082,90.3823729 L0.971559082,90.3823729 L31.436876,8.09084746 C33.4493913,2.55864407 36.849848,0 42.3322172,0 Z M96.4034019,102 C101.524736,102 104.708268,99.6474434 106.64607,94.3887876 L128.238721,37.3738876 C128.723171,36.1284165 129,34.6753668 129,33.3607029 C129,29.416711 125.954883,26.5798046 121.664035,26.5798046 C118.272882,26.5798046 115.919836,28.4480112 114.674107,32.3228103 L96.6110235,86.0856468 L96.3341946,86.0856468 L78.2711116,32.4611959 C77.0253817,28.4480112 74.6723364,26.5798046 71.2119757,26.5798046 C66.8519212,26.5798046 63.6683893,29.2783253 63.6683893,33.4298957 C63.6683893,34.8137525 64.0144253,36.2668021 64.4988759,37.5814661 L86.0915269,94.3887876 C88.1677433,99.7858291 91.0744463,102 96.4034019,102 Z" id="Av"></path>
                </g>
            </g>
        </g>
    </g>
</svg>