<?xml version="1.0" encoding="UTF-8"?>
<svg width="180px" height="180px" viewBox="0 0 180 180" version="1.1" xmlns="http://www.w3.org/2000/svg" xmlns:xlink="http://www.w3.org/1999/xlink" style="background: #000000;">
    <title>Icon</title>
    <g id="Page-1" stroke="none" stroke-width="1" fill="none" fill-rule="evenodd">
        <g id="Icon">
            <rect fill="#000000" opacity="0.1" x="0" y="0" width="180" height="180"></rect>
            <polygon id="Rectangle" fill="#000000" points="0 0 180 0 180 180 0 180"></polygon>
            <path d="M56.2452316,-5.89971123e-15 L123.754768,2.27237468e-15 C143.312461,-1.32031513e-15 150.404553,2.03636184 157.554553,5.86022369 C164.704553,9.68408553 170.315914,15.2954474 174.139776,22.4454474 C177.963638,29.5954474 180,36.6875392 180,56.2452316 L180,123.754768 C180,143.312461 177.963638,150.404553 174.139776,157.554553 C170.315914,164.704553 164.704553,170.315914 157.554553,174.139776 C150.404553,177.963638 143.312461,180 123.754768,180 L56.2452316,180 C36.6875392,180 29.5954474,177.963638 22.4454474,174.139776 C15.2954474,170.315914 9.68408553,164.704553 5.86022369,157.554553 C2.03636184,150.404553 2.98779708e-15,143.312461 -5.14225301e-15,123.754768 L1.51491645e-15,56.2452316 C-8.80210084e-16,36.6875392 2.03636184,29.5954474 5.86022369,22.4454474 C9.68408553,15.2954474 15.2954474,9.68408553 22.4454474,5.86022369 C29.5954474,2.03636184 36.6875392,3.42790213e-15 56.2452316,-5.89971123e-15 Z" id="Path" fill="#FAFAFA"></path>
            <g id="Group-2-Copy" transform="translate(26.718750, 37.968750)" fill="#000000" fill-opacity="0.85" fill-rule="nonzero">
                <g id="Group">
                    <path d="M43.0321139,0 C48.5345809,0 51.9207145,2.53983051 54.037048,8.18389831 L54.037048,8.18389831 L85.0766055,92.2099576 C85.78205,94.1853814 86.0642278,95.5258475 86.0642278,96.8663136 C86.0642278,101.028814 82.7486387,104.0625 78.1632495,104.0625 C73.9305826,104.0625 71.6026158,102.087076 70.1917268,97.571822 L70.1917268,97.571822 L62.434,75.639 L62.4591277,75.639087 L43.0034908,17.9651873 L42.5811068,17.9651873 L23.498,75.63 L23.4913015,75.6305085 L15.8019566,97.5012712 C14.3205232,102.087076 11.9925563,104.0625 7.90097829,104.0625 C3.17450021,104.0625 0,101.169915 0,96.8663136 C0,95.6669492 0.282177796,94.1148305 0.987622287,92.2099576 L0.987622287,92.2099576 L31.9566354,8.25444915 C34.0024244,2.61038136 37.4591024,0 43.0321139,0 Z M97.9972808,104.0625 C103.203288,104.0625 106.439454,101.662373 108.409295,96.2973844 L130.358947,38.1296096 C130.851407,36.8589543 131.132812,35.3765231 131.132812,34.0352759 C131.132812,30.0115342 128.037349,27.1172638 123.675559,27.1172638 C120.228338,27.1172638 117.836389,29.0232468 116.570063,32.9763965 L98.2083351,87.8263493 L97.9269293,87.8263493 L79.5652015,33.1175804 C78.2988755,29.0232468 75.9069263,27.1172638 72.3893539,27.1172638 C67.9572127,27.1172638 64.7210461,29.8703503 64.7210461,34.1058679 C64.7210461,35.5177071 65.0728034,37.0001382 65.5652635,38.3413854 L87.5149151,96.2973844 C89.6254585,101.803557 92.5802193,104.0625 97.9972808,104.0625 Z" id="Av"></path>
                </g>
            </g>
        </g>
    </g>
</svg>